X-Men.First.Class.2011.720p.BRRiP.x264.ogg.mkv-anoXmous

Format                           : Matroska
File size                        : 698 MiB
Duration                         : 2h 11mn
Overall bit rate                 : 741 Kbps
Writing application              : mkvmerge v4.8.0 ('I Got The...') built on May 24 2011 03:12:58
Writing library                  : libebml v1.2.0 + libmatroska v1.1.0

Video
ID                               : 1
Format                           : AVC
Format/Info                      : Advanced Video Codec
Format profile                   : High@L4.1
Format settings, CABAC           : Yes
Format settings, ReFrames        : 4 frames
Format settings, GOP             : M=4, N=60
Codec ID                         : V_MPEG4/ISO/AVC
Duration                         : 2h 11mn
Bit rate                         : 680 Kbps
Width                            : 1 280 pixels
Height                           : 544 pixels
Display aspect ratio             : 2.35:1
Frame rate                       : 23.976 fps
Color space                      : YUV
Chroma subsampling               : 4:2:0
Bit depth                        : 8 bits
Scan type                        : Progressive
Bits/(Pixel*Frame)               : 0.041
Stream size                      : 624 MiB (89%)
Writing library                  : x264 core 115 r1995 c1e60b9
Encoding settings                : cabac=1 / ref=3 / deblock=1:0:0 / analyse=0x3:0x133 / me=hex / subme=7 / psy=1 / psy_rd=1.00:0.00 / mixed_ref=1 / me_range=16 / chroma_me=1 / trellis=1 / 8x8dct=1 / cqm=0 / deadzone=21,11 / fast_pskip=1 / chroma_qp_offset=-2 / threads=3 / sliced_threads=0 / slices=4 / nr=0 / decimate=1 / interlaced=0 / bluray_compat=0 / constrained_intra=0 / bframes=3 / b_pyramid=2 / b_adapt=1 / b_bias=0 / direct=1 / weightb=1 / open_gop=0 / weightp=2 / keyint=250 / keyint_min=23 / scenecut=40 / intra_refresh=0 / rc_lookahead=40 / rc=2pass / mbtree=1 / bitrate=680 / ratetol=1.0 / qcomp=0.60 / qpmin=0 / qpmax=69 / qpstep=4 / cplxblur=20.0 / qblur=0.5 / ip_ratio=1.40 / aq=1:1.00

Audio
ID                               : 2
Format                           : Vorbis
Format settings, Floor           : 1
Codec ID                         : A_VORBIS
Duration                         : 2h 11mn
Bit rate mode                    : Constant
Bit rate                         : 64.0 Kbps
Channel(s)                       : 2 channels
Sampling rate                    : 48.0 KHz
Compression mode                 : Lossy
Stream size                      : 60.3 MiB (9%)
Writing library                  : aoTuV 20110424 (UTC 2011-04-24)

Text
ID                               : 3
Format                           : UTF-8
Codec ID                         : S_TEXT/UTF8
Codec ID/Info                    : UTF-8 Plain Text
Language                         : Swedish

Menu
00:00:00.000                     : en:Chapter.01
00:04:21.552                     : en:Chapter.02
00:09:33.155                     : en:Chapter.03
00:14:03.425                     : en:Chapter.04
00:16:08.175                     : en:Chapter.05
00:22:10.829                     : en:Chapter.06
00:27:11.046                     : en:Chapter.07
00:28:46.349                     : en:Chapter.08
00:31:32.891                     : en:Chapter.09
00:36:07.540                     : en:Chapter.10
00:40:12.660                     : en:Chapter.11
00:44:16.487                     : en:Chapter.12
00:50:05.752                     : en:Chapter.13
00:54:00.862                     : en:Chapter.14
01:01:07.413                     : en:Chapter.15
01:08:17.927                     : en:Chapter.16
01:11:51.098                     : en:Chapter.17
01:14:06.525                     : en:Chapter.18
01:20:07.052                     : en:Chapter.19
01:23:43.226                     : en:Chapter.20
01:27:35.833                     : en:Chapter.21
01:28:51.242                     : en:Chapter.22
01:31:24.979                     : en:Chapter.23
01:33:33.899                     : en:Chapter.24
01:37:54.410                     : en:Chapter.25
01:39:55.197                     : en:Chapter.26
01:43:37.961                     : en:Chapter.27
01:47:44.166                     : en:Chapter.28
01:52:38.460                     : en:Chapter.29
01:56:44.622                     : en:Chapter.30
02:01:26.696                     : en:Chapter.31
02:04:24.248                     : en:Chapter.32
 
http://www.imdb.com/title/tt1270798/